<svg xmlns="http://www.w3.org/2000/svg" version="1.1" xmlns:xlink="http://www.w3.org/1999/xlink" xmlns:svgjs="http://svgjs.com/svgjs" width="100" height="100" x="0" y="0" viewBox="0 0 496 496" style="enable-background:new 0 0 512 512" xml:space="preserve" class=""><g><path xmlns="http://www.w3.org/2000/svg" d="m240 256h16v16h-16zm0 0" fill="#ff6c3e" data-original="#000000" class=""></path><path xmlns="http://www.w3.org/2000/svg" d="m296 208v-16c0-26.472656-21.527344-48-48-48s-48 21.527344-48 48v32h-16v112h128v-112h-96v-32c0-17.648438 14.351562-32 32-32s32 14.351562 32 32v16zm0 112h-40v-32h-16v32h-40v-80h96zm0 0" fill="#ff6c3e" data-original="#000000" class=""></path><path xmlns="http://www.w3.org/2000/svg" d="m196.789062 87.800781 15.453126-4.140625 4.140624 15.453125-15.453124 4.140625zm0 0" fill="#ff6c3e" data-original="#000000" class=""></path><path xmlns="http://www.w3.org/2000/svg" d="m157.078125 106.515625 13.855469-7.996094 8 13.855469-13.859375 8zm0 0" fill="#ff6c3e" data-original="#000000" class=""></path><path xmlns="http://www.w3.org/2000/svg" d="m123.5625 134.859375 11.316406-11.308594 11.3125 11.316407-11.320312 11.3125zm0 0" fill="#ff6c3e" data-original="#000000" class=""></path><path xmlns="http://www.w3.org/2000/svg" d="m98.5 170.929688 8-13.859376 13.855469 8-8 13.859376zm0 0" fill="#ff6c3e" data-original="#000000" class=""></path><path xmlns="http://www.w3.org/2000/svg" d="m83.648438 212.25 4.140624-15.453125 15.453126 4.140625-4.140626 15.453125zm0 0" fill="#ff6c3e" data-original="#000000" class=""></path><path xmlns="http://www.w3.org/2000/svg" d="m279.59375 396.882812 15.453125-4.140624 4.144531 15.453124-15.457031 4.140626zm0 0" fill="#ff6c3e" data-original="#000000" class=""></path><path xmlns="http://www.w3.org/2000/svg" d="m317.074219 383.648438 13.855469-8 8 13.859374-13.859376 8zm0 0" fill="#ff6c3e" data-original="#000000" class=""></path><path xmlns="http://www.w3.org/2000/svg" d="m349.851562 361.136719 11.320313-11.308594 11.308594 11.316406-11.316407 11.3125zm0 0" fill="#ff6c3e" data-original="#000000" class=""></path><path xmlns="http://www.w3.org/2000/svg" d="m375.621094 330.929688 8-13.859376 13.855468 8-8 13.859376zm0 0" fill="#ff6c3e" data-original="#000000" class=""></path><path xmlns="http://www.w3.org/2000/svg" d="m392.757812 295.097656 4.140626-15.453125 15.457031 4.140625-4.140625 15.453125zm0 0" fill="#ff6c3e" data-original="#000000" class=""></path><path xmlns="http://www.w3.org/2000/svg" d="m480 80h16v16h-16zm0 0" fill="#ff6c3e" data-original="#000000" class=""></path><path xmlns="http://www.w3.org/2000/svg" d="m448 120h16v16h-16zm0 0" fill="#ff6c3e" data-original="#000000" class=""></path><path xmlns="http://www.w3.org/2000/svg" d="m448 168h16v16h-16zm0 0" fill="#ff6c3e" data-original="#000000" class=""></path><path xmlns="http://www.w3.org/2000/svg" d="m480 216h16v16h-16zm0 0" fill="#ff6c3e" data-original="#000000" class=""></path><path xmlns="http://www.w3.org/2000/svg" d="m0 400h16v16h-16zm0 0" fill="#ff6c3e" data-original="#000000" class=""></path><path xmlns="http://www.w3.org/2000/svg" d="m32 360h16v16h-16zm0 0" fill="#ff6c3e" data-original="#000000" class=""></path><path xmlns="http://www.w3.org/2000/svg" d="m248 112c-74.992188 0-136 61.007812-136 136 0 5.238281.335938 10.601562.992188 16h-80.992188v16h99.992188l-1.808594-9.496094c-1.449219-7.632812-2.183594-15.199218-2.183594-22.503906 0-66.167969 53.832031-120 120-120 39.703125 0 76.792969 19.625 99.207031 52.503906l2.386719 3.496094h82.40625v-16h-74.03125c-14.199219-19.496094-33.082031-34.566406-54.503906-44.144531l27.847656-27.855469h17.375l40 40h43.3125v-16h-36.6875l-24-24h92.6875v-16h-139.3125l-37.71875 37.71875c-12.488281-3.734375-25.59375-5.71875-38.96875-5.71875zm0 0" fill="#ff6c3e" data-original="#000000" class=""></path><path xmlns="http://www.w3.org/2000/svg" d="m248 384c74.992188 0 136-61.007812 136-136 0-5.238281-.335938-10.601562-.992188-16h80.992188v-16h-99.992188l1.808594 9.496094c1.449219 7.632812 2.183594 15.199218 2.183594 22.503906 0 66.167969-53.832031 120-120 120-39.703125 0-76.792969-19.625-99.207031-52.503906l-2.386719-3.496094h-82.40625v16h74.03125c14.199219 19.496094 33.082031 34.566406 54.503906 44.144531l-27.847656 27.855469h-17.375l-40-40h-43.3125v16h36.6875l24 24h-92.6875v16h139.3125l37.71875-37.71875c12.488281 3.734375 25.59375 5.71875 38.96875 5.71875zm0 0" fill="#ff6c3e" data-original="#000000" class=""></path><path xmlns="http://www.w3.org/2000/svg" d="m32 312h16v16h-16zm0 0" fill="#ff6c3e" data-original="#000000" class=""></path><path xmlns="http://www.w3.org/2000/svg" d="m0 264h16v16h-16zm0 0" fill="#ff6c3e" data-original="#000000" class=""></path><path xmlns="http://www.w3.org/2000/svg" d="m101.121094 112.433594c-32.945313 35.671875-53.121094 83.292968-53.121094 135.566406h16c0-101.464844 82.542969-184 184-184v-16c-52.273438 0-99.894531 20.175781-135.566406 53.121094l-16.433594-16.433594v-36.6875h-16v32h-16v-48h-16v48h-16v-80h-16v80h-16v16h84.6875zm0 0" fill="#ff6c3e" data-original="#000000" class=""></path><path xmlns="http://www.w3.org/2000/svg" d="m480 400h-16v80h-16v-48h-16v48h-16v-32h-16v32h-12.6875l-52.066406-52.0625c66.683594-32.472656 112.753906-100.921875 112.753906-179.9375h-16c0 101.464844-82.542969 184-184 184v16c25.167969 0 49.238281-4.71875 71.449219-13.238281l61.238281 61.238281h115.3125v-16h-16zm0 0" fill="#ff6c3e" data-original="#000000" class=""></path></g></svg>