<svg xmlns="http://www.w3.org/2000/svg" version="1.1" xmlns:xlink="http://www.w3.org/1999/xlink" xmlns:svgjs="http://svgjs.com/svgjs" width="100" height="100" x="0" y="0" viewBox="0 0 64 64" style="enable-background:new 0 0 512 512" xml:space="preserve" class=""><g><path xmlns="http://www.w3.org/2000/svg" d="M16,20a4,4,0,1,0-4-4A4,4,0,0,0,16,20Zm0-6a2,2,0,1,1-2,2A2,2,0,0,1,16,14Z" fill="#ff6c3e" data-original="#000000" class=""></path><path xmlns="http://www.w3.org/2000/svg" d="M20,47h2V45H19a1,1,0,0,0-1,1v4H15.11A1.11,1.11,0,0,1,14,48.89V35h4v2h2V34a1,1,0,0,0-1-1H14V31h8V29H14V25.6a1.09,1.09,0,0,1,.36-.81,1.17,1.17,0,0,1,.9-.28,9.39,9.39,0,0,0,1.07,0,8.45,8.45,0,0,0,8.22-8.22,9.39,9.39,0,0,0,0-1.07,1.17,1.17,0,0,1,.28-.9A1.09,1.09,0,0,1,25.6,14H48.89A1.11,1.11,0,0,1,50,15.11V28h2V15.11A3.12,3.12,0,0,0,48.89,12H25.6a3.11,3.11,0,0,0-2.3,1,3.18,3.18,0,0,0-.78,2.45,5.62,5.62,0,0,1,0,.82,6.43,6.43,0,0,1-6.26,6.26,5.57,5.57,0,0,1-.82,0A3.18,3.18,0,0,0,13,23.3a3.11,3.11,0,0,0-1,2.3V48.89A3.12,3.12,0,0,0,15.11,52H29V50H20Z" fill="#ff6c3e" data-original="#000000" class=""></path><path xmlns="http://www.w3.org/2000/svg" d="M40.65,34.86v.48a7.06,7.06,0,0,0-1.83,1.06l-.53-.29a1.94,1.94,0,0,0-2.58.67l-1.44,2.4a1.78,1.78,0,0,0-.21,1.42A1.86,1.86,0,0,0,35,41.76l.44.24a8.36,8.36,0,0,0,0,2l-.44.24a1.86,1.86,0,0,0-.91,1.16,1.78,1.78,0,0,0,.21,1.42l1.45,2.4a1.93,1.93,0,0,0,2.57.67l.48-.27a8.83,8.83,0,0,0,1.88,1v.48A1.88,1.88,0,0,0,42.55,53h2.9a1.88,1.88,0,0,0,1.9-1.86v-.48a7.06,7.06,0,0,0,1.83-1.06l.53.29a1.94,1.94,0,0,0,2.58-.67l1.44-2.4a1.78,1.78,0,0,0,.21-1.42A1.86,1.86,0,0,0,53,44.24L52.59,44a8.36,8.36,0,0,0,0-2l.44-.24a1.86,1.86,0,0,0,.91-1.16,1.78,1.78,0,0,0-.21-1.42l-1.45-2.4a1.94,1.94,0,0,0-2.57-.67l-.48.27a8.83,8.83,0,0,0-1.88-1v-.48A1.88,1.88,0,0,0,45.45,33h-2.9A1.88,1.88,0,0,0,40.65,34.86Zm2,.14h2.7v.44a1.88,1.88,0,0,0,1.22,1.74A6.42,6.42,0,0,1,48,38a2,2,0,0,0,2.11.15l.47-.26,1.32,2.19-.4.21a1.85,1.85,0,0,0-.95,1.86,6.05,6.05,0,0,1,0,1.7,1.85,1.85,0,0,0,.95,1.86l.4.21-1.32,2.19-.47-.26A2,2,0,0,0,48,48a6.42,6.42,0,0,1-1.47.82,1.88,1.88,0,0,0-1.22,1.74V51h-2.7v-.44a1.88,1.88,0,0,0-1.22-1.74A6.42,6.42,0,0,1,40,48a2,2,0,0,0-2.11-.15l-.47.26-1.32-2.19.4-.21a1.85,1.85,0,0,0,.95-1.86,6.05,6.05,0,0,1,0-1.7,1.85,1.85,0,0,0-.95-1.86l-.4-.21,1.32-2.19.47.26A2,2,0,0,0,40,38a6.42,6.42,0,0,1,1.47-.82,1.88,1.88,0,0,0,1.22-1.74Z" fill="#ff6c3e" data-original="#000000" class=""></path><path xmlns="http://www.w3.org/2000/svg" d="M39,43a5,5,0,1,0,5-5A5,5,0,0,0,39,43Zm5-3a3,3,0,1,1-3,3A3,3,0,0,1,44,40Z" fill="#ff6c3e" data-original="#000000" class=""></path><path xmlns="http://www.w3.org/2000/svg" d="M59.29,14H56V11.09A3.1,3.1,0,0,0,52.91,8H50V4.71a3,3,0,0,0-6,0V8H35V4.71a3,3,0,0,0-6,0V8H20V4.71A2.87,2.87,0,0,0,17,2a2.87,2.87,0,0,0-3,2.71V8H11.09A3.1,3.1,0,0,0,8,11.09V14H4.71A2.87,2.87,0,0,0,2,17a2.87,2.87,0,0,0,2.71,3H8v9H4.71a3,3,0,0,0,0,6H8v9H4.71a3,3,0,0,0,0,6H8v2.91A3.1,3.1,0,0,0,11.09,56H14v3.29A2.87,2.87,0,0,0,17,62a2.87,2.87,0,0,0,3-2.71V56h9v3.29a3,3,0,0,0,6,0V56h1.34a39.06,39.06,0,0,0,4.38,3.73l2.83,2.08a1,1,0,0,0,.59.19,1,1,0,0,0,.61-.21l3.53-2.73C56.15,53,60.89,44.87,62,35.61v0a1,1,0,0,0-.82-1.11l-1.55-.26A27.69,27.69,0,0,1,56,33.34V20h3.29A2.87,2.87,0,0,0,62,17,2.87,2.87,0,0,0,59.29,14ZM8,48H4.71C4.33,48,4,47.54,4,47s.33-1,.71-1H8ZM8,33H4.71C4.33,33,4,32.54,4,32s.33-1,.71-1H8ZM8,18H4.71C4.33,18,4,17.54,4,17s.33-1,.71-1H8ZM46,4.71c0-.38.46-.71,1-.71s1,.33,1,.71V8H46Zm-15,0c0-.38.46-.71,1-.71s1,.33,1,.71V8H31Zm-15,0c0-.38.46-.71,1-.71s1,.33,1,.71V8H16Zm2,54.58c0,.38-.46.71-1,.71s-1-.33-1-.71V56h2Zm15,0c0,.38-.46.71-1,.71s-1-.33-1-.71V56h2ZM11.09,54A1.09,1.09,0,0,1,10,52.91V11.09A1.09,1.09,0,0,1,11.09,10H52.91A1.09,1.09,0,0,1,54,11.09V32.63a27,27,0,0,1-9.15-6.06,1,1,0,0,0-1.42,0,27,27,0,0,1-14.77,7.65l-1.55.26a1,1,0,0,0-.82,1.1A33.39,33.39,0,0,0,34.46,54Zm48.2-17.81.59.1A32.64,32.64,0,0,1,47.06,57.48l-2.94,2.27L41.9,58.11C34.3,52.53,29.65,45,28.4,36.29l.59-.1a29,29,0,0,0,15.15-7.52A29,29,0,0,0,59.29,36.19Zm0-18.19H56V16h3.29c.38,0,.71.46.71,1S59.67,18,59.29,18Z" fill="#ff6c3e" data-original="#000000" class=""></path><path xmlns="http://www.w3.org/2000/svg" d="M44,18H42V16H40v2H38V16H36v2H34V16H32v2H30a1,1,0,0,0-1,1v4a1,1,0,0,0,1,1h2v2h2V24h2v2h2V24h2v2h2V24h2a1,1,0,0,0,1-1V19A1,1,0,0,0,44,18Zm-1,4H31V20H43Z" fill="#ff6c3e" data-original="#000000" class=""></path><rect xmlns="http://www.w3.org/2000/svg" x="24" y="29" width="2" height="2" fill="#ff6c3e" data-original="#000000" class=""></rect><rect xmlns="http://www.w3.org/2000/svg" x="18" y="39" width="2" height="2" fill="#ff6c3e" data-original="#000000" class=""></rect><rect xmlns="http://www.w3.org/2000/svg" x="24" y="45" width="2" height="2" fill="#ff6c3e" data-original="#000000" class=""></rect></g></svg>