<svg xmlns="http://www.w3.org/2000/svg" version="1.1" xmlns:xlink="http://www.w3.org/1999/xlink" xmlns:svgjs="http://svgjs.com/svgjs" width="100" height="100" x="0" y="0" viewBox="0 0 511.99 511.99" style="enable-background:new 0 0 512 512" xml:space="preserve" class=""><g><path xmlns="http://www.w3.org/2000/svg" d="m255.712 107.168c-7.367 0-14.322 3.37-19.083 9.246-2.608 3.218-2.113 7.941 1.105 10.549s7.941 2.112 10.549-1.105c1.9-2.345 4.608-3.689 7.429-3.689 2.935 0 5.666 1.322 7.493 3.627 1.48 1.867 3.671 2.841 5.882 2.841 1.632 0 3.276-.53 4.654-1.623 3.246-2.572 3.792-7.29 1.218-10.536-4.688-5.917-11.704-9.31-19.247-9.31z" fill="#ff6c3e" data-original="#000000" class=""></path><path xmlns="http://www.w3.org/2000/svg" d="m289.576 104.042c1.48 1.868 3.67 2.842 5.882 2.841 1.632 0 3.276-.53 4.655-1.623 3.246-2.573 3.791-7.291 1.217-10.536-11.144-14.056-27.812-22.117-45.731-22.117-17.458 0-33.984 8.039-45.341 22.055-2.608 3.218-2.113 7.941 1.105 10.549s7.94 2.112 10.549-1.105c8.496-10.484 20.774-16.498 33.687-16.498 13.312-.002 25.696 5.989 33.977 16.434z" fill="#ff6c3e" data-original="#000000" class=""></path><path xmlns="http://www.w3.org/2000/svg" d="m186.313 82.194c3.218 2.608 7.941 2.112 10.549-1.105 14.762-18.218 36.131-28.666 58.629-28.666 23.168 0 44.722 10.426 59.134 28.604 1.48 1.868 3.67 2.842 5.882 2.841 1.632 0 3.276-.53 4.655-1.623 3.246-2.573 3.791-7.291 1.217-10.536-17.274-21.789-43.112-34.285-70.888-34.285-27.043 0-52.661 12.474-70.284 34.223-2.607 3.216-2.112 7.94 1.106 10.547z" fill="#ff6c3e" data-original="#000000" class=""></path><path xmlns="http://www.w3.org/2000/svg" d="m275.21 340.696c-6.163-5.521-14.446-8.161-22.724-7.251-13.417 1.479-24.219 12.297-25.684 25.722-.899 8.242 1.739 16.495 7.238 22.642.512.572.805 1.412.805 2.305v18.141c0 11.573 9.212 21.158 20.535 21.366.132.002.263.003.395.003 5.517 0 10.708-2.119 14.652-5.993 4.04-3.967 6.265-9.27 6.265-14.931v-18.586c0-.894.288-1.728.788-2.285 4.793-5.348 7.433-12.245 7.433-19.42 0-8.275-3.537-16.189-9.703-21.713zm-8.901 31.122c-2.977 3.323-4.616 7.689-4.616 12.295v18.586c0 1.604-.63 3.104-1.774 4.228s-2.675 1.737-4.264 1.695c-3.204-.059-5.81-2.915-5.81-6.368v-18.141c0-4.601-1.643-8.971-4.625-12.305-2.706-3.025-3.951-6.937-3.506-11.015.709-6.492 5.931-11.724 12.417-12.438 4.107-.458 8.037.795 11.072 3.513 2.994 2.683 4.711 6.524 4.711 10.54-.001 3.475-1.28 6.817-3.605 9.41z" fill="#ff6c3e" data-original="#000000" class=""></path><path xmlns="http://www.w3.org/2000/svg" d="m301.745 459.567h-136.621c-4.435 0-8.042-3.607-8.042-8.042v-20.78c0-4.143-3.358-7.5-7.5-7.5s-7.5 3.357-7.5 7.5v20.78c0 12.705 10.337 23.042 23.042 23.042h136.622c4.142 0 7.5-3.357 7.5-7.5s-3.359-7.5-7.501-7.5z" fill="#ff6c3e" data-original="#000000" class=""></path><path xmlns="http://www.w3.org/2000/svg" d="m487.916 210.221c-10.656 0-19.712 6.962-22.872 16.575h-60.944c-2.01 0-3.936.807-5.346 2.24l-23.225 23.604h-32.485v-18.936c0-.338-.009-.673-.013-1.01h22.822c4.142 0 7.5-3.357 7.5-7.5v-41.637c9.613-3.16 16.575-12.216 16.575-22.872 0-13.275-10.8-24.075-24.075-24.075s-24.075 10.8-24.075 24.075c0 10.656 6.962 19.712 16.575 22.872v34.137h-16.786c-7.541-40.503-43.142-71.265-85.798-71.265s-78.257 30.762-85.798 71.265h-16.334v-34.137c9.613-3.16 16.575-12.216 16.575-22.872 0-13.275-10.8-24.075-24.075-24.075s-24.075 10.8-24.075 24.075c0 10.656 6.962 19.712 16.575 22.872v41.637c0 4.143 3.358 7.5 7.5 7.5h22.37c-.004.337-.013.672-.013 1.01v18.936h-32.033l-23.225-23.604c-1.41-1.434-3.336-2.24-5.346-2.24h-60.943c-3.16-9.613-12.216-16.575-22.872-16.575-13.275 0-24.075 10.8-24.075 24.075 0 13.274 10.8 24.074 24.075 24.074 10.656 0 19.712-6.962 22.872-16.574h57.802l23.225 23.604c1.41 1.434 3.336 2.24 5.346 2.24h35.175v19.923h-3.371c-12.706 0-23.042 10.337-23.042 23.043v9.852h-39.432c-4.142 0-7.5 3.357-7.5 7.5v15.857h-27.907c-2.877-10.075-12.161-17.475-23.147-17.475-13.275 0-24.075 10.8-24.075 24.074 0 13.275 10.8 24.075 24.075 24.075 10.321 0 19.144-6.53 22.56-15.675h35.994c4.142 0 7.5-3.357 7.5-7.5v-15.857h31.931v35.49h-33.759c-4.142 0-7.5 3.357-7.5 7.5v19.591c0 .186.015.369.028.551-9.627 3.152-16.603 12.215-16.603 22.881 0 13.275 10.8 24.075 24.075 24.075s24.075-10.8 24.075-24.075c0-10.666-6.976-19.729-16.603-22.881.013-.183.028-.365.028-.551v-12.091h26.259v10.048c0 4.143 3.358 7.5 7.5 7.5s7.5-3.357 7.5-7.5v-85.39c0-4.435 3.608-8.043 8.042-8.043h181.291c4.435 0 8.042 3.608 8.042 8.043v140.92c0 4.435-3.608 8.042-8.042 8.042h-9.753c-4.142 0-7.5 3.357-7.5 7.5s3.358 7.5 7.5 7.5h9.753c12.706 0 23.042-10.337 23.042-23.042v-65.578h26.711v12.091c0 .186.015.369.028.551-9.627 3.152-16.603 12.215-16.603 22.881 0 13.275 10.8 24.075 24.075 24.075s24.075-10.8 24.075-24.075c0-10.666-6.976-19.729-16.603-22.881.013-.183.028-.365.028-.551v-19.591c0-4.143-3.358-7.5-7.5-7.5h-34.211v-35.49h32.383v15.857c0 4.143 3.358 7.5 7.5 7.5h35.994c3.416 9.145 12.238 15.675 22.56 15.675 13.275 0 24.075-10.8 24.075-24.075 0-13.274-10.8-24.074-24.075-24.074-10.986 0-20.27 7.4-23.147 17.475h-27.906v-15.857c0-4.143-3.358-7.5-7.5-7.5h-39.883v-9.852c0-12.706-10.337-23.043-23.042-23.043h-3.371v-19.923h35.627c2.01 0 3.936-.807 5.346-2.24l23.225-23.604h57.802c3.16 9.612 12.216 16.574 22.872 16.574 13.275 0 24.075-10.8 24.075-24.074-.001-13.275-10.801-24.075-24.075-24.075zm-131.138-49.535c0-5.004 4.071-9.075 9.075-9.075s9.075 4.071 9.075 9.075-4.071 9.074-9.075 9.074-9.075-4.071-9.075-9.074zm-210.641 9.074c-5.004 0-9.075-4.07-9.075-9.074s4.071-9.075 9.075-9.075 9.075 4.071 9.075 9.075-4.071 9.074-9.075 9.074zm-122.062 73.61c-5.004 0-9.075-4.07-9.075-9.074s4.071-9.075 9.075-9.075 9.075 4.071 9.075 9.075-4.071 9.074-9.075 9.074zm20.021 116.119c-5.004 0-9.075-4.071-9.075-9.075s4.071-9.074 9.075-9.074 9.075 4.07 9.075 9.074-4.071 9.075-9.075 9.075zm73.3 61.982c0 5.004-4.071 9.075-9.075 9.075s-9.075-4.071-9.075-9.075 4.071-9.074 9.075-9.074 9.075 4.07 9.075 9.074zm210.648-133.908h-18.308v-53.858c0-29.758-24.209-53.967-53.967-53.967-28.878 0-52.557 22.58-53.907 51.405-.194 4.137 3.003 7.648 7.141 7.843 4.127.184 7.649-3.003 7.843-7.142.975-20.808 18.072-37.106 38.924-37.106 21.486 0 38.967 17.48 38.967 38.967v53.858h-77.934v-21.234c0-4.143-3.358-7.5-7.5-7.5s-7.5 3.357-7.5 7.5v21.234h-18.308v-53.858c0-39.853 32.422-72.274 72.275-72.274s72.275 32.422 72.275 72.274v53.858zm75.624 124.833c5.004 0 9.075 4.07 9.075 9.074s-4.071 9.075-9.075 9.075-9.075-4.071-9.075-9.075 4.072-9.074 9.075-9.074zm64.227-71.056c5.004 0 9.075 4.07 9.075 9.074s-4.071 9.075-9.075 9.075-9.075-4.071-9.075-9.075 4.071-9.074 9.075-9.074zm20.021-97.97c-5.004 0-9.075-4.07-9.075-9.074s4.071-9.075 9.075-9.075 9.075 4.071 9.075 9.075-4.072 9.074-9.075 9.074z" fill="#ff6c3e" data-original="#000000" class=""></path></g></svg>