<svg xmlns="http://www.w3.org/2000/svg" version="1.1" xmlns:xlink="http://www.w3.org/1999/xlink" xmlns:svgjs="http://svgjs.com/svgjs" width="100" height="100" x="0" y="0" viewBox="0 0 64 64" style="enable-background:new 0 0 512 512" xml:space="preserve" class=""><g><g xmlns="http://www.w3.org/2000/svg" fill="rgb(0,0,0)"><path d="m37.59473 26.7334a4.549 4.549 0 0 1 -2.00782-1.99219c-.29052-.56543-1.1748-2.28418-.4248-3.66894a3.26316 3.26316 0 0 1 1.89453-1.42579 1.00692 1.00692 0 0 0 .35739-1.7041c-1.65768-1.458-5.75876-3.48437-9.4194-.7334a7.70051 7.70051 0 0 0 -3.02395 7.88478 4.29359 4.29359 0 0 0 -4.47019 2.12987 1.01008 1.01008 0 0 0 .77834 1.46288c2.34569.32072 2.11718 2.273.40859 4.68755a9.86427 9.86427 0 0 0 -1.6342 6.9111 9.36565 9.36565 0 0 0 8.789 7.41808c1.83687-.06744 5.06347.21935 6.7852-.47681 1.48687-.41881 3.17193-.89342 5.4356-3.828 5.03471-5.75473 1.7823-13.64537-3.46829-16.66503zm-8.75244 18.96973a5.75806 5.75806 0 0 1 -2.252-3.88958 4.39388 4.39388 0 0 1 1.51271-3.34773c.5083-.38086 3.356-2.65039 3.82373-5.95508 2.76824 2.5994 1.44587 4.23814-.97127 6.3974a1.00749 1.00749 0 0 0 .419 1.67779 5.343 5.343 0 0 0 4.95017-1.05859 5.73907 5.73907 0 0 1 .13134 3.10352c-.37643 1.36473-1.83571 3.19575-3.64645 3.0723zm10.65917-3.55469c-.38735.48918-1.52278 1.9573-1.11029.98837a8.77156 8.77156 0 0 0 -.98-6.15341 1.0083 1.0083 0 0 0 -1.76806.10159 2.731 2.731 0 0 1 -1.51416 1.49509c3.54221-4.03516-.79392-7.94329-2.76526-8.93746a1.00662 1.00662 0 0 0 -1.45786 1.0703c.67429 3.457-3.001 6.15231-3.03616 6.17771a1.03692 1.03692 0 0 0 -.12061.10058 6.07716 6.07716 0 0 0 -1.35949 7.63034 6.88748 6.88748 0 0 1 -2.07157-10.09034c2.084-3.04669 2.51116-5.67968-.07675-7.2637 1.416-.59368 3.46625.31257 3.49066.32331a.99951.99951 0 0 0 1.044-1.68652c-2.08214-1.84669-.699-5.60989 1.42037-7.09562a5.03748 5.03748 0 0 1 5.58109-.23348c-2.21527 1.64465-2.44983 4.24413-.96874 7.08005 1.45883 2.73736 3.04737 2.45108 4.94382 4.53911 2.8374 2.87316 4.2533 7.99376.74901 11.95408z" fill="#ff6c3e" data-original="#000000" class=""></path><path d="m58.896 26.709-4.313-.5498a23.24128 23.24128 0 0 0 -2.7168-6.5498l2.66359-3.4424a1.00021 1.00021 0 0 0 -.084-1.31933l-5.75438-5.75392a1.00071 1.00071 0 0 0 -1.31885-.084l-3.44238 2.66406a23.26432 23.26432 0 0 0 -6.54883-2.71778l-.5503-4.31347a1.00025 1.00025 0 0 0 -.99218-.873h-8.13819a1.00026 1.00026 0 0 0 -.99218.873l-.5503 4.31347a23.26426 23.26426 0 0 0 -6.54882 2.71778l-3.44238-2.66404a.99848.99848 0 0 0 -1.31885.084l-5.7544 5.75389a1.0002 1.0002 0 0 0 -.084 1.31933l2.66357 3.44239a23.26878 23.26878 0 0 0 -2.71729 6.5498l-4.313.5498a1.00028 1.00028 0 0 0 -.87354.99219v8.1377a1.00027 1.00027 0 0 0 .87354.99218l4.313.54981a23.28315 23.28315 0 0 0 2.71729 6.5498l-2.66355 3.44141a1.00022 1.00022 0 0 0 .084 1.31934l5.75439 5.75488a.99972.99972 0 0 0 1.31885.084l3.44287-2.66406a23.24617 23.24617 0 0 0 6.54832 2.71677l.5503 4.31347a1.00026 1.00026 0 0 0 .99218.87305h8.13819a1.00025 1.00025 0 0 0 .99218-.87305l.5503-4.31347a23.24617 23.24617 0 0 0 6.54834-2.7168l3.44287 2.66406a1.00185 1.00185 0 0 0 1.31885-.084l5.75439-5.75488a1.00023 1.00023 0 0 0 .084-1.31934l-2.66358-3.44141a23.2819 23.2819 0 0 0 2.7168-6.5498l4.313-.54981a1.00027 1.00027 0 0 0 .87353-.99218v-8.1377a1.00028 1.00028 0 0 0 -.87355-.99214zm-1.12647 8.249-4.13183.52734a1 1 0 0 0 -.85157.78418 21.31029 21.31029 0 0 1 -2.977 7.17676 1.00019 1.00019 0 0 0 .04785 1.15625l2.55225 3.29785-4.50933 4.5088-3.29834-2.55176a1.0018 1.0018 0 0 0 -1.15625-.04785 21.31079 21.31079 0 0 1 -7.17631 2.97754.99957.99957 0 0 0 -.78369.85059l-.52685 4.13183h-6.37741l-.52685-4.13183a.99956.99956 0 0 0 -.78369-.85059 21.31079 21.31079 0 0 1 -7.17627-2.97754 1.00353 1.00353 0 0 0 -1.15625.04785l-3.29834 2.55176-4.50928-4.50879 2.55176-3.29785a1.00017 1.00017 0 0 0 .04787-1.15625 21.32687 21.32687 0 0 1 -2.97705-7.17774 1.00018 1.00018 0 0 0 -.85156-.7832l-4.13186-.52735v-6.376l4.13184-.52734a1 1 0 0 0 .85156-.78418 21.3137 21.3137 0 0 1 2.97707-7.17673 1.00024 1.00024 0 0 0 -.04785-1.15625l-2.55176-3.29785 4.50928-4.50879 3.29833 2.55176a1.0018 1.0018 0 0 0 1.15625.04785 21.28194 21.28194 0 0 1 7.17627-2.97656 1.00179 1.00179 0 0 0 .78369-.85157l.52685-4.13281h6.37744l.52685 4.13281a1.00181 1.00181 0 0 0 .78369.85157 21.28185 21.28185 0 0 1 7.17627 2.97656 1.00015 1.00015 0 0 0 1.15625-.04785l3.29834-2.55176 4.50928 4.50879-2.55225 3.29785a1.00025 1.00025 0 0 0 -.04785 1.15625 21.29379 21.29379 0 0 1 2.977 7.17676 1 1 0 0 0 .85157.78418l4.13183.52734z" fill="#ff6c3e" data-original="#000000" class=""></path></g></g></svg>